<svg width="900" height="750" xmlns="http://www.w3.org/2000/svg">
 <!-- Background Sections -->

 <!-- Section Headers -->
 <!-- Data Collection Layer -->
 <!-- Data Processing Layer -->
 <!-- Model Fine-tuning Layer -->
 <!-- Evaluation Layer -->
 <!-- Connecting Arrows -->
 <!-- Data Collection to Processing -->
 <!-- Processing Connections -->
 <!-- Training to Models -->
 <!-- Models to Evaluation -->
 <!-- Evaluation to UI -->
 <!-- Bidirectional arrow between models -->
 <!-- Legend -->
 <g>
  <title>Layer 1</title>
  <rect stroke="#2c3e50" id="svg_1" ry="5" rx="5" fill="#f0f8ff" height="90" width="667" y="30" x="61.99999"/>
  <path stroke="#2c3e50" id="svg_2" d="m63.00001,175c0,-2.71689 2.19139,-5 4.79914,-5l659.40173,0c2.60775,0 4.79914,2.28311 4.79914,5l0,120c0,2.71689 -2.19139,5 -4.79914,5l-659.40173,0c-2.60775,0 -4.79914,-2.28311 -4.79914,-5l0,-120z" opacity="undefined" fill="#f0faff"/>
  <rect stroke="#2c3e50" id="svg_3" ry="5" rx="5" fill="#f0fffa" height="150" width="666.00005" y="350" x="64.99999"/>
  <path stroke="#2c3e50" id="svg_4" d="m65.99998,555c0,-2.71689 2.18743,-5 4.79046,-5l653.41915,0c2.60304,0 4.79046,2.28311 4.79046,5l0,140c0,2.71689 -2.18743,5 -4.79046,5l-653.41915,0c-2.60304,0 -4.79046,-2.28311 -4.79046,-5l0,-140z" opacity="undefined" fill="#fff8f0"/>
  <text id="svg_5" fill="#2c3e50" font-weight="bold" font-size="14" font-family="Arial" y="50" x="70">1. Data Collection</text>
  <text style="cursor: move;" id="svg_6" fill="#2c3e50" font-weight="bold" font-size="14" font-family="Arial" y="190" x="70">2. Data Processing &amp;     Feature Engineering</text>
  <text id="svg_7" fill="#2c3e50" font-weight="bold" font-size="14" font-family="Arial" y="371" x="73">3. Model Fine-tuning</text>
  <text id="svg_8" fill="#2c3e50" font-weight="bold" font-size="14" font-family="Arial" y="570" x="70">4. Evaluation &amp; Deployment</text>
  <rect id="svg_9" stroke-width="2" stroke="#3498db" ry="5" rx="5" fill="#d0e3ff" height="45" width="130" y="60" x="150"/>
  <text style="cursor: move;" font-weight="bold" id="svg_10" fill="#2c3e50" text-anchor="middle" font-size="12" font-family="Arial" y="87" x="215">Research Papers</text>
  <rect id="svg_11" stroke-width="2" stroke="#3498db" ry="5" rx="5" fill="#d0e3ff" height="45" width="130" y="60" x="350"/>
  <text style="cursor: move;" font-weight="bold" id="svg_12" fill="#2c3e50" text-anchor="middle" font-size="12" font-family="Arial" y="87" x="415">Census Data</text>
  <rect id="svg_13" stroke-width="2" stroke="#3498db" ry="5" rx="5" fill="#d0e3ff" height="45" width="130" y="60" x="550"/>
  <text style="cursor: move;" font-weight="bold" id="svg_14" fill="#2c3e50" text-anchor="middle" font-size="12" font-family="Arial" y="87" x="615">Policy Outcomes</text>
  <rect id="svg_15" stroke-width="2" stroke="#3498db" ry="5" rx="5" fill="#d0eeff" height="45" width="130" y="210" x="150"/>
  <text style="cursor: move;" font-weight="bold" id="svg_16" fill="#2c3e50" text-anchor="middle" font-size="12" font-family="Arial" y="237" x="215">Text Extraction</text>
  <rect id="svg_17" stroke-width="2" stroke="#3498db" ry="5" rx="5" fill="#d0eeff" height="45" width="130" y="210" x="350"/>
  <text style="cursor: move;" font-weight="bold" id="svg_18" fill="#2c3e50" text-anchor="middle" font-size="12" font-family="Arial" y="237" x="415">Data Cleaning</text>
  <rect id="svg_19" stroke-width="2" stroke="#3498db" ry="5" rx="5" fill="#d0eeff" height="45" width="130" y="210" x="550"/>
  <text style="cursor: move;" font-weight="bold" id="svg_20" fill="#2c3e50" text-anchor="middle" font-size="12" font-family="Arial" y="237" x="615">Feature Engineering</text>
  <rect id="svg_21" stroke-width="2" stroke="#3498db" ry="5" rx="5" fill="#d0eeff" height="45" width="130" y="280" x="350"/>
  <text style="cursor: move;" font-weight="bold" id="svg_22" fill="#2c3e50" text-anchor="middle" font-size="12" font-family="Arial" y="307" x="415">Training Dataset</text>
  <path id="svg_23" d="m168,404c0,-2.71689 2.28311,-5 5,-5l180,0c2.71689,0 5,2.28311 5,5l0,50c0,2.71689 -2.28311,5 -5,5l-180,0c-2.71689,0 -5,-2.28311 -5,-5l0,-50z" opacity="undefined" stroke-width="2" stroke="#2ecc71" fill="#d0fff0"/>
  <text id="svg_24" fill="#2c3e50" font-weight="bold" text-anchor="middle" font-size="12" font-family="Arial" y="421" x="263">LLaMA 3.2B Model</text>
  <text id="svg_25" fill="#2c3e50" text-anchor="middle" font-size="11" font-family="Arial" y="439" x="263">with LoRA Adaptation</text>
  <rect id="svg_26" stroke-width="2" stroke="#2ecc71" ry="5" rx="5" fill="#d0fff0" height="60" width="190" y="400" x="475"/>
  <text id="svg_27" fill="#2c3e50" font-weight="bold" text-anchor="middle" font-size="12" font-family="Arial" y="424" x="573">LLaMA 3.2B Model</text>
  <text id="svg_28" fill="#2c3e50" text-anchor="middle" font-size="11" font-family="Arial" y="441" x="575">with QLoRA Adaptation</text>
  <path id="svg_29" d="m100,597c0,-2.71689 2.28311,-5 5,-5l90,0c2.71689,0 5,2.28311 5,5l0,35c0,2.71689 -2.28311,5 -5,5l-90,0c-2.71689,0 -5,-2.28311 -5,-5l0,-35z" opacity="undefined" stroke-width="2" stroke="#e67e22" fill="#ffe8d0"/>
  <text font-weight="bold" id="svg_30" fill="#2c3e50" text-anchor="middle" font-size="12" font-family="Arial" y="618" x="153">Accuracy</text>
  <rect id="svg_31" stroke-width="2" stroke="#e67e22" ry="5" rx="5" fill="#ffe8d0" height="45" width="100" y="591" x="220"/>
  <text style="cursor: move;" font-weight="bold" id="svg_32" fill="#2c3e50" text-anchor="middle" font-size="12" font-family="Arial" y="618" x="273">Perplexity</text>
  <rect id="svg_33" stroke-width="2" stroke="#e67e22" ry="5" rx="5" fill="#ffe8d0" height="45" width="100" y="592" x="344"/>
  <text font-weight="bold" id="svg_34" fill="#2c3e50" text-anchor="middle" font-size="12" font-family="Arial" y="619" x="394">ROUGE Score</text>
  <rect id="svg_35" stroke-width="2" stroke="#e67e22" ry="5" rx="5" fill="#ffe8d0" height="45" width="100" y="592" x="466"/>
  <text font-weight="bold" id="svg_36" fill="#2c3e50" text-anchor="middle" font-size="12" font-family="Arial" y="619" x="516">Inference Speed</text>
  <path id="svg_37" d="m583,596c0,-2.71689 2.28311,-5 5,-5l120,0c2.71689,0 5,2.28311 5,5l0,35c0,2.71689 -2.28311,5 -5,5l-120,0c-2.71689,0 -5,-2.28311 -5,-5l0,-35z" opacity="undefined" stroke-width="2" stroke="#e67e22" fill="#ffe8d0"/>
  <text font-weight="bold" id="svg_38" fill="#2c3e50" text-anchor="middle" font-size="12" font-family="Arial" y="619" x="647">Policy Relevance</text>
  <rect id="svg_39" stroke-width="2" stroke="#e74c3c" ry="5" rx="5" fill="#ffcfc0" height="45" width="200" y="666" x="300"/>
  <text id="svg_40" fill="#2c3e50" font-weight="bold" text-anchor="middle" font-size="12" font-family="Arial" y="695" x="402">Streamlit/Gradio Interface</text>
  <line id="svg_41" stroke-dasharray="5,2" stroke-width="1.5" stroke="#2c3e50" y2="210" x2="215" y1="105" x1="215"/>
  <line id="svg_42" stroke-dasharray="5,2" stroke-width="1.5" stroke="#2c3e50" y2="210" x2="415" y1="105" x1="415"/>
  <line id="svg_43" stroke-dasharray="5,2" stroke-width="1.5" stroke="#2c3e50" y2="210" x2="615" y1="105" x1="615"/>
  <line id="svg_44" stroke-width="1.5" stroke="#2c3e50" y2="280" x2="350" y1="255" x1="215"/>
  <line id="svg_45" stroke-width="1.5" stroke="#2c3e50" y2="280" x2="415" y1="255" x1="415"/>
  <line id="svg_46" stroke-width="1.5" stroke="#2c3e50" y2="280" x2="480" y1="255" x1="615"/>
  <line stroke="#2c3e50" id="svg_47" stroke-width="1.5" y2="399" x2="254" y1="324" x1="351"/>
  <line stroke="#2c3e50" id="svg_48" stroke-width="1.5" y2="400" x2="580" y1="325" x1="480"/>
  <line stroke="#2c3e50" id="svg_49" stroke-dasharray="5,2" stroke-width="1.5" y2="562" x2="273" y1="462" x1="273"/>
  <path stroke="#2c3e50" id="svg_50" stroke-width="1.5" fill="transparent" d="m273,558q-273,-558 -86,34"/>
  <path stroke="#2c3e50" id="svg_51" stroke-width="1.5" fill="transparent" d="m274,563q-1.5,15.5 -3,28"/>
  <path stroke="#2c3e50" id="svg_52" stroke-width="1.5" fill="transparent" d="m273,562q0,14.5 118,29"/>
  <line id="svg_53" stroke-dasharray="5,2" stroke-width="1.5" stroke="#2c3e50" y2="560" x2="570" y1="460" x1="570"/>
  <path stroke="#2c3e50" id="svg_54" stroke-width="1.5" fill="transparent" d="m570,557q0,17 -54.00001,34"/>
  <path stroke="#2c3e50" id="svg_55" stroke-width="1.5" fill="transparent" d="m571,557q0,16.5 76,33"/>
  <line stroke="#2c3e50" id="svg_56" stroke-width="1.5" y2="680" x2="301" y1="638" x1="154"/>
  <line stroke="#2c3e50" id="svg_57" stroke-width="1.5" y2="664" x2="358" y1="638" x1="273"/>
  <line stroke="#2c3e50" id="svg_58" stroke-width="1.5" y2="662" x2="402" y1="639" x1="402"/>
  <line stroke="#2c3e50" id="svg_59" stroke-width="1.5" y2="665" x2="464" y1="638" x1="521"/>
  <line stroke="#2c3e50" id="svg_60" stroke-width="1.5" y2="682" x2="502.00001" y1="637" x1="648"/>
  <line stroke="#2c3e50" id="svg_61" stroke-dasharray="5,2" stroke-width="1.5" y2="430" x2="470.00001" y1="430" x1="364"/>
  <polygon stroke="#2c3e50" id="svg_62" fill="#2c3e50" points="469,425 474,430 469,435 "/>
  <polygon id="svg_63" stroke="#2c3e50" fill="#2c3e50" points="363,425 358,430 363,435 "/>
  <path id="svg_64" d="m622,131c0,-2.71689 2.28311,-5 5,-5l140,0c2.71689,0 5,2.28311 5,5l0,60c0,2.71689 -2.28311,5 -5,5l-140,0c-2.71689,0 -5,-2.28311 -5,-5l0,-60z" opacity="undefined" stroke="#2c3e50" fill="white"/>
  <text style="cursor: move;" id="svg_65" fill="#2c3e50" font-size="11" font-family="Arial" y="143" x="642">Legend:</text>
  <line id="svg_66" stroke-width="1.5" stroke="#2c3e50" y2="153" x2="673" y1="153" x1="653"/>
  <text id="svg_67" fill="#2c3e50" font-size="10" font-family="Arial" y="156" x="682">Direct Flow</text>
  <line stroke="#2c3e50" id="svg_68" stroke-dasharray="5,2" stroke-width="1.5" y2="164" x2="674" y1="164" x1="654"/>
  <text id="svg_69" fill="#2c3e50" font-size="10" font-family="Arial" y="167" x="682">Data Transfer</text>
  <rect id="svg_70" stroke="#e74c3c" fill="#ffcfc0" height="10" width="15" y="176" x="656"/>
  <text id="svg_71" fill="#2c3e50" font-size="10" font-family="Arial" y="185" x="683">Final Output</text>
  <path stroke="#2c3e50" id="svg_75" stroke-width="1.5" fill="transparent" d="m273,563q0,14.5 -79,29"/>
 </g>
</svg>